# xmcd
#
# Track frame offsets:
#	150
#	12585
#	25835
#	37900
#	51390
#	65600
#	79145
#	93285
#	108050
#	121855
#	135615
#	147815
#	159780
#	167010
#	181375
#	195290
#
# Disc length: 2941 seconds
#
# Revision: 1
# Processed by: cddbd v1.5.2PL0 Copyright (c) Steve Scherf et al.
# Submitted via: audiograbber 1.83.01
#
DISCID=c40b7b10
DTITLE=John and Eden's East River String Band - Sweet East River
DYEAR=2006
DGENRE=Blues
TTITLE0=Me and My Chauffeur Blues
TTITLE1=Skoodle Um Skoo
TTITLE2=Don't Speak to Me
TTITLE3=Pony Blues
TTITLE4=Cocaine
TTITLE5=Old Jim Canan's
TTITLE6=Sweet East River
TTITLE7=Skinny Leg Blues
TTITLE8=I Got the Whiskey
TTITLE9=Devil Got My Woman
TTITLE10=Fox Trot Medley (for dancing)
TTITLE11=Black Hole Blues
TTITLE12=Tonight You Belong to Me
TTITLE13=Tell It to Me
TTITLE14=Humming Blues
TTITLE15=Going to Germany
EXTD=
EXTT0=
EXTT1=
EXTT2=
EXTT3=
EXTT4=
EXTT5=
EXTT6=
EXTT7=
EXTT8=
EXTT9=
EXTT10=
EXTT11=
EXTT12=
EXTT13=
EXTT14=
EXTT15=
PLAYORDER=
